<mxfile host="app.diagrams.net" agent="Mozilla/5.0 (Windows NT 10.0; Win64; x64) AppleWebKit/537.36 (KHTML, like Gecko) Chrome/138.0.0.0 Safari/537.36" version="27.1.6">
  <diagram name="Pagina-1" id="UaNkxEnIw2f4sNMR2VHh">
    <mxGraphModel dx="1783" dy="2098" grid="1" gridSize="10" guides="1" tooltips="1" connect="1" arrows="1" fold="1" page="1" pageScale="1" pageWidth="827" pageHeight="1169" math="0" shadow="0">
      <root>
        <mxCell id="0" />
        <mxCell id="1" parent="0" />
        <UserObject label="%step%" step="**&lt;BR&gt;&lt;b&gt;STACK REPLACEMENT&lt;BR&gt;HANDLING&lt;/b&gt;&lt;BR&gt;**" shapeType="titleText" width="250" link="" placeholders="1" id="O4qrvx7rD5n2ogxMP4Dq-698">
          <mxCell style="whiteSpace=wrap;shape=hexagon;fillColor=#ffffff;strokeColor=#000000;perimeter=hexagonPerimeter;fontSize=14;html=1;" vertex="1" parent="1">
            <mxGeometry x="288.5" y="-1067" width="250" height="95" as="geometry" />
          </mxCell>
        </UserObject>
        <UserObject label="%step%" step="Input and output Corex cables tightened at 15Nm" shapeType="instruction" width="140" link="" placeholders="1" id="O4qrvx7rD5n2ogxMP4Dq-699">
          <mxCell style="whiteSpace=wrap;rounded=1;fillColor=#ffffff;strokeColor=#000000;perimetre=rectanglePerimetre;html=1;" vertex="1" parent="1">
            <mxGeometry x="343.5" y="-942" width="140" height="45" as="geometry" />
          </mxCell>
        </UserObject>
        <UserObject label="%step%" step="Red marker applied to stack power connection bolts" shapeType="instruction" width="125" link="" placeholders="1" id="O4qrvx7rD5n2ogxMP4Dq-700">
          <mxCell style="whiteSpace=wrap;rounded=1;fillColor=#ffffff;strokeColor=#000000;perimetre=rectanglePerimetre;html=1;" vertex="1" parent="1">
            <mxGeometry x="351" y="-867" width="125" height="45" as="geometry" />
          </mxCell>
        </UserObject>
        <UserObject label="%step%" step="Transparent protective covers restored" shapeType="instruction" width="125" link="" placeholders="1" id="O4qrvx7rD5n2ogxMP4Dq-701">
          <mxCell style="whiteSpace=wrap;rounded=1;fillColor=#ffffff;strokeColor=#000000;perimetre=rectanglePerimetre;html=1;" vertex="1" parent="1">
            <mxGeometry x="351" y="-792" width="125" height="45" as="geometry" />
          </mxCell>
        </UserObject>
        <UserObject label="%step%" step="Stack switched on" shapeType="instruction" width="125" link="" placeholders="1" id="O4qrvx7rD5n2ogxMP4Dq-702">
          <mxCell style="whiteSpace=wrap;rounded=1;fillColor=#ffffff;strokeColor=#000000;perimetre=rectanglePerimetre;html=1;" vertex="1" parent="1">
            <mxGeometry x="351" y="-717" width="125" height="45" as="geometry" />
          </mxCell>
        </UserObject>
        <UserObject label="%step%" step="Register new Stack&#39;s SN on lifecycle" shapeType="instruction" width="125" link="" placeholders="1" id="O4qrvx7rD5n2ogxMP4Dq-703">
          <mxCell style="whiteSpace=wrap;rounded=1;fillColor=#ffffff;strokeColor=#000000;perimetre=rectanglePerimetre;html=1;" vertex="1" parent="1">
            <mxGeometry x="351" y="-642" width="125" height="45" as="geometry" />
          </mxCell>
        </UserObject>
        <UserObject label="%step%" step="Execute &lt;BR&gt;&lt;b&gt;ST6: Configure Stack Positions&lt;/b&gt;&lt;/BR&gt;" shapeType="instruction" width="125" link="" placeholders="1" id="O4qrvx7rD5n2ogxMP4Dq-704">
          <mxCell style="whiteSpace=wrap;rounded=1;fillColor=#ffffff;strokeColor=#000000;perimetre=rectanglePerimetre;html=1;" vertex="1" parent="1">
            <mxGeometry x="351" y="-567" width="125" height="55" as="geometry" />
          </mxCell>
        </UserObject>
        <UserObject label="%step%" step="Execute &lt;BR&gt;&lt;b&gt; Update Components Firmware &lt;/b&gt;&lt;/BR&gt; to update the stack&#39;s FW" shapeType="instruction" width="125" link="" placeholders="1" id="O4qrvx7rD5n2ogxMP4Dq-705">
          <mxCell style="whiteSpace=wrap;rounded=1;fillColor=#ffffff;strokeColor=#000000;perimetre=rectanglePerimetre;html=1;" vertex="1" parent="1">
            <mxGeometry x="351" y="-482" width="125" height="75" as="geometry" />
          </mxCell>
        </UserObject>
        <UserObject label="%step%" step="Execute &lt;BR&gt;&lt;b&gt;ST1: Stack Test&lt;/b&gt;&lt;/BR&gt;" shapeType="instruction" width="125" link="" placeholders="1" id="O4qrvx7rD5n2ogxMP4Dq-706">
          <mxCell style="whiteSpace=wrap;rounded=1;fillColor=#ffffff;strokeColor=#000000;perimetre=rectanglePerimetre;html=1;" vertex="1" parent="1">
            <mxGeometry x="351" y="-377" width="125" height="55" as="geometry" />
          </mxCell>
        </UserObject>
        <UserObject label="%step%" step="Success!!" shapeType="instruction" width="125" link="" placeholders="1" id="O4qrvx7rD5n2ogxMP4Dq-707">
          <mxCell style="whiteSpace=wrap;rounded=1;fillColor=#ffffff;strokeColor=#000000;perimetre=rectanglePerimetre;html=1;" vertex="1" parent="1">
            <mxGeometry x="186" y="-277" width="125" height="45" as="geometry" />
          </mxCell>
        </UserObject>
        <UserObject label="%step%" step="- Stacks have mixed versions&lt;BR&gt;- Stack not in CAN&lt;BR&gt;- SYNC errors" shapeType="instruction" width="125" link="" placeholders="1" id="O4qrvx7rD5n2ogxMP4Dq-708">
          <mxCell style="whiteSpace=wrap;rounded=1;fillColor=#ffffff;strokeColor=#000000;perimetre=rectanglePerimetre;html=1;" vertex="1" parent="1">
            <mxGeometry x="351" y="-292" width="125" height="75" as="geometry" />
          </mxCell>
        </UserObject>
        <UserObject label="%step%" step="Test reports grid voltage issues" shapeType="instruction" width="125" link="" placeholders="1" id="O4qrvx7rD5n2ogxMP4Dq-709">
          <mxCell style="whiteSpace=wrap;rounded=1;fillColor=#ffffff;strokeColor=#000000;perimetre=rectanglePerimetre;html=1;" vertex="1" parent="1">
            <mxGeometry x="516" y="-277" width="125" height="45" as="geometry" />
          </mxCell>
        </UserObject>
        <UserObject label="%step%" step="Repeat &lt;BR&gt;&lt;b&gt; Update Components Firmware &lt;/b&gt;&lt;/BR&gt; and then &lt;BR&gt;&lt;b&gt;ST1: Stack Test&lt;/b&gt;&lt;/BR&gt;" shapeType="instruction" width="125" link="" placeholders="1" id="O4qrvx7rD5n2ogxMP4Dq-710">
          <mxCell style="whiteSpace=wrap;rounded=1;fillColor=#ffffff;strokeColor=#000000;perimetre=rectanglePerimetre;html=1;" vertex="1" parent="1">
            <mxGeometry x="351" y="-187" width="125" height="85" as="geometry" />
          </mxCell>
        </UserObject>
        <UserObject label="%step%" step="Have technician test phase to phase and phase to neutral voltage" shapeType="instruction" width="125" link="" placeholders="1" id="O4qrvx7rD5n2ogxMP4Dq-711">
          <mxCell style="whiteSpace=wrap;rounded=1;fillColor=#ffffff;strokeColor=#000000;perimetre=rectanglePerimetre;html=1;" vertex="1" parent="1">
            <mxGeometry x="516" y="-167.00000000000023" width="125" height="45" as="geometry" />
          </mxCell>
        </UserObject>
        <UserObject label="%step%" step="GOOD!!" shapeType="instruction" width="125" link="" placeholders="1" id="O4qrvx7rD5n2ogxMP4Dq-712">
          <mxCell style="whiteSpace=wrap;rounded=1;fillColor=#ffffff;strokeColor=#000000;perimetre=rectanglePerimetre;html=1;" vertex="1" parent="1">
            <mxGeometry x="186" y="-167" width="125" height="45" as="geometry" />
          </mxCell>
        </UserObject>
        <mxCell id="O4qrvx7rD5n2ogxMP4Dq-713" value="" style="curved=1;endArrow=blockThin;startArrow=none;strokeColor=#999999;endFill=1;" edge="1" parent="1" source="O4qrvx7rD5n2ogxMP4Dq-698" target="O4qrvx7rD5n2ogxMP4Dq-699">
          <mxGeometry relative="1" as="geometry">
            <Array as="points">
              <mxPoint x="413.5" y="-960" />
              <mxPoint x="413.5" y="-954" />
            </Array>
          </mxGeometry>
        </mxCell>
        <mxCell id="O4qrvx7rD5n2ogxMP4Dq-714" value="" style="curved=1;endArrow=blockThin;startArrow=none;strokeColor=#999999;endFill=1;" edge="1" parent="1" source="O4qrvx7rD5n2ogxMP4Dq-699" target="O4qrvx7rD5n2ogxMP4Dq-700">
          <mxGeometry relative="1" as="geometry">
            <Array as="points">
              <mxPoint x="413.5" y="-885" />
              <mxPoint x="413.5" y="-879" />
            </Array>
          </mxGeometry>
        </mxCell>
        <mxCell id="O4qrvx7rD5n2ogxMP4Dq-715" value="" style="curved=1;endArrow=blockThin;startArrow=none;strokeColor=#999999;endFill=1;" edge="1" parent="1" source="O4qrvx7rD5n2ogxMP4Dq-700" target="O4qrvx7rD5n2ogxMP4Dq-701">
          <mxGeometry relative="1" as="geometry">
            <Array as="points">
              <mxPoint x="413.5" y="-810" />
              <mxPoint x="413.5" y="-804" />
            </Array>
          </mxGeometry>
        </mxCell>
        <mxCell id="O4qrvx7rD5n2ogxMP4Dq-716" value="" style="curved=1;endArrow=blockThin;startArrow=none;strokeColor=#999999;endFill=1;" edge="1" parent="1" source="O4qrvx7rD5n2ogxMP4Dq-701" target="O4qrvx7rD5n2ogxMP4Dq-702">
          <mxGeometry relative="1" as="geometry">
            <Array as="points">
              <mxPoint x="413.5" y="-735" />
              <mxPoint x="413.5" y="-729" />
            </Array>
          </mxGeometry>
        </mxCell>
        <mxCell id="O4qrvx7rD5n2ogxMP4Dq-717" value="" style="curved=1;endArrow=blockThin;startArrow=none;strokeColor=#999999;endFill=1;" edge="1" parent="1" source="O4qrvx7rD5n2ogxMP4Dq-702" target="O4qrvx7rD5n2ogxMP4Dq-703">
          <mxGeometry relative="1" as="geometry">
            <Array as="points">
              <mxPoint x="413.5" y="-660" />
              <mxPoint x="413.5" y="-654" />
            </Array>
          </mxGeometry>
        </mxCell>
        <mxCell id="O4qrvx7rD5n2ogxMP4Dq-718" value="" style="curved=1;endArrow=blockThin;startArrow=none;strokeColor=#999999;endFill=1;" edge="1" parent="1" source="O4qrvx7rD5n2ogxMP4Dq-703" target="O4qrvx7rD5n2ogxMP4Dq-704">
          <mxGeometry relative="1" as="geometry">
            <Array as="points">
              <mxPoint x="413.5" y="-585" />
              <mxPoint x="413.5" y="-579" />
            </Array>
          </mxGeometry>
        </mxCell>
        <mxCell id="O4qrvx7rD5n2ogxMP4Dq-719" value="" style="curved=1;endArrow=blockThin;startArrow=none;strokeColor=#999999;endFill=1;" edge="1" parent="1" source="O4qrvx7rD5n2ogxMP4Dq-704" target="O4qrvx7rD5n2ogxMP4Dq-705">
          <mxGeometry relative="1" as="geometry">
            <Array as="points">
              <mxPoint x="413.5" y="-500" />
              <mxPoint x="413.5" y="-494" />
            </Array>
          </mxGeometry>
        </mxCell>
        <mxCell id="O4qrvx7rD5n2ogxMP4Dq-720" value="" style="curved=1;endArrow=blockThin;startArrow=none;strokeColor=#999999;endFill=1;" edge="1" parent="1" source="O4qrvx7rD5n2ogxMP4Dq-705" target="O4qrvx7rD5n2ogxMP4Dq-706">
          <mxGeometry relative="1" as="geometry">
            <Array as="points">
              <mxPoint x="413.5" y="-395" />
              <mxPoint x="413.5" y="-389" />
            </Array>
          </mxGeometry>
        </mxCell>
        <mxCell id="O4qrvx7rD5n2ogxMP4Dq-721" value="" style="curved=1;endArrow=blockThin;startArrow=none;strokeColor=#999999;endFill=1;" edge="1" parent="1" source="O4qrvx7rD5n2ogxMP4Dq-706" target="O4qrvx7rD5n2ogxMP4Dq-707">
          <mxGeometry relative="1" as="geometry">
            <Array as="points">
              <mxPoint x="375.16666666666663" y="-310" />
              <mxPoint x="248.5" y="-304" />
            </Array>
          </mxGeometry>
        </mxCell>
        <mxCell id="O4qrvx7rD5n2ogxMP4Dq-722" value="" style="curved=1;endArrow=blockThin;startArrow=none;strokeColor=#999999;endFill=1;" edge="1" parent="1" source="O4qrvx7rD5n2ogxMP4Dq-706" target="O4qrvx7rD5n2ogxMP4Dq-708">
          <mxGeometry relative="1" as="geometry">
            <Array as="points">
              <mxPoint x="413.5" y="-308" />
              <mxPoint x="413.5" y="-304" />
            </Array>
          </mxGeometry>
        </mxCell>
        <mxCell id="O4qrvx7rD5n2ogxMP4Dq-723" value="" style="curved=1;endArrow=blockThin;startArrow=none;strokeColor=#999999;endFill=1;" edge="1" parent="1" source="O4qrvx7rD5n2ogxMP4Dq-706" target="O4qrvx7rD5n2ogxMP4Dq-709">
          <mxGeometry relative="1" as="geometry">
            <Array as="points">
              <mxPoint x="451.8333333333333" y="-310" />
              <mxPoint x="578.5" y="-304" />
            </Array>
          </mxGeometry>
        </mxCell>
        <mxCell id="O4qrvx7rD5n2ogxMP4Dq-724" value="" style="curved=1;endArrow=blockThin;startArrow=none;strokeColor=#999999;endFill=1;" edge="1" parent="1" source="O4qrvx7rD5n2ogxMP4Dq-708" target="O4qrvx7rD5n2ogxMP4Dq-710">
          <mxGeometry relative="1" as="geometry">
            <Array as="points">
              <mxPoint x="413.5" y="-205" />
              <mxPoint x="413.5" y="-199" />
            </Array>
          </mxGeometry>
        </mxCell>
        <mxCell id="O4qrvx7rD5n2ogxMP4Dq-725" value="" style="curved=1;endArrow=blockThin;startArrow=none;strokeColor=#999999;endFill=1;" edge="1" parent="1" source="O4qrvx7rD5n2ogxMP4Dq-709" target="O4qrvx7rD5n2ogxMP4Dq-711">
          <mxGeometry relative="1" as="geometry">
            <Array as="points">
              <mxPoint x="578.5" y="-205" />
              <mxPoint x="578.5" y="-199" />
            </Array>
          </mxGeometry>
        </mxCell>
        <mxCell id="O4qrvx7rD5n2ogxMP4Dq-726" value="" style="curved=1;endArrow=blockThin;startArrow=none;strokeColor=#999999;endFill=1;" edge="1" parent="1" source="O4qrvx7rD5n2ogxMP4Dq-707" target="O4qrvx7rD5n2ogxMP4Dq-712">
          <mxGeometry relative="1" as="geometry">
            <Array as="points">
              <mxPoint x="248.5" y="-205" />
              <mxPoint x="248.5" y="-199" />
            </Array>
          </mxGeometry>
        </mxCell>
      </root>
    </mxGraphModel>
  </diagram>
</mxfile>
